<svg width="228" height="89" viewBox="0 0 228 89" fill="none" xmlns="http://www.w3.org/2000/svg">
<path d="M52.543 10C58.8704 10 63.9998 15.1294 63.9998 21.4568V66.5432C63.9998 72.8706 58.8704 78 52.543 78V10Z" fill="#FFED00"/>
<path d="M64.001 66.7954C64.001 72.9835 58.9845 78 52.7964 78H21.3343V66.7954H64.001Z" fill="#FFED00"/>
<path d="M50.371 66.0229L51.7537 64.6706L52.5438 62.7388V66.7956H48.9883L50.371 66.0229Z" fill="#FFED00"/>
<path d="M11.457 78C5.12962 78 0.00024128 72.8706 0.00024128 66.5432L0.00024128 21.4568C0.00024128 15.1294 5.12962 10 11.457 10L11.457 78Z" fill="#FFED00"/>
<path d="M0 21.2046C0 15.0165 5.01645 10 11.2045 10L42.6667 10V21.2046L0 21.2046Z" fill="#FFED00"/>
<path d="M13.63 21.9771L12.2473 23.3294L11.4571 25.2612V21.2044H15.0127L13.63 21.9771Z" fill="#FFED00"/>
<rect x="20.1494" y="28.5454" width="22.5185" height="31.2955" fill="#0028A3"/>
<rect x="41.0869" y="31.6362" width="1.58025" height="2.31818" fill="white"/>
<path d="M41.0869 52.5H42.6672V54.8182H41.0869V52.5Z" fill="white"/>
<rect x="24.4951" y="40.9092" width="1.18519" height="5.40909" fill="white"/>
<rect x="25.6797" y="40.9092" width="0.395062" height="5.40909" fill="#5974C4"/>
<rect x="24.0996" y="40.9092" width="0.395062" height="5.40909" fill="#5974C4"/>
<rect x="24.4951" y="40.9092" width="0.386364" height="1.18519" transform="rotate(-90 24.4951 40.9092)" fill="#4260BC"/>
<rect x="25.6797" y="40.9092" width="0.386364" height="0.395062" transform="rotate(-90 25.6797 40.9092)" fill="#2649B1"/>
<rect x="24.0996" y="40.9092" width="0.386364" height="0.395062" transform="rotate(-90 24.0996 40.9092)" fill="#2649B1"/>
<rect x="24.0996" y="46.7046" width="0.386364" height="0.395062" transform="rotate(-90 24.0996 46.7046)" fill="#2649B1"/>
<rect x="25.6797" y="46.7046" width="0.386364" height="0.395062" transform="rotate(-90 25.6797 46.7046)" fill="#2649B1"/>
<rect x="24.4951" y="46.7046" width="0.386364" height="1.18519" transform="rotate(-90 24.4951 46.7046)" fill="#4260BC"/>
<path d="M78.927 39V11.26H88.161C90.0103 11.26 91.619 11.6147 92.987 12.324C94.3803 13.0333 95.457 14.034 96.217 15.326C96.977 16.5927 97.357 18.0873 97.357 19.81C97.357 21.5073 96.9643 23.002 96.179 24.294C95.419 25.586 94.355 26.5867 92.987 27.296C91.619 28.0053 90.0103 28.36 88.161 28.36H83.677V39H78.927ZM83.677 24.066H88.161C89.4783 24.066 90.5296 23.686 91.315 22.926C92.1256 22.1407 92.531 21.102 92.531 19.81C92.531 18.4927 92.1256 17.454 91.315 16.694C90.5296 15.934 89.4783 15.554 88.161 15.554H83.677V24.066ZM101.18 39V11.26H105.93V34.592H117.71V39H101.18ZM119.861 39L126.853 11.26H132.971L140.001 39H135.137L133.617 32.274H126.245L124.725 39H119.861ZM127.119 28.398H132.743L131.071 20.95C130.793 19.7087 130.552 18.594 130.349 17.606C130.147 16.5927 130.007 15.858 129.931 15.402C129.855 15.858 129.716 16.5927 129.513 17.606C129.336 18.594 129.095 19.696 128.791 20.912L127.119 28.398ZM142.532 39V11.26H148.346L156.06 33.68C155.984 32.8693 155.896 31.9193 155.794 30.83C155.718 29.7153 155.655 28.588 155.604 27.448C155.554 26.2827 155.528 25.2693 155.528 24.408V11.26H159.86V39H154.046L146.408 16.58C146.459 17.3147 146.522 18.2013 146.598 19.24C146.674 20.2787 146.738 21.3427 146.788 22.432C146.839 23.5213 146.864 24.522 146.864 25.434V39H142.532ZM164.406 39V11.26H181.05V15.402H169.08V22.622H179.72V26.726H169.08V34.858H181.05V39H164.406ZM191.333 39V15.668H184.075V11.26H203.379V15.668H196.121V39H191.333ZM204.922 39L211.914 11.26H218.032L225.062 39H220.198L218.678 32.274H211.306L209.786 39H204.922ZM212.18 28.398H217.804L216.132 20.95C215.853 19.7087 215.613 18.594 215.41 17.606C215.207 16.5927 215.068 15.858 214.992 15.402C214.916 15.858 214.777 16.5927 214.574 17.606C214.397 18.594 214.156 19.696 213.852 20.912L212.18 28.398Z" fill="#0028A3"/>
<path d="M78.851 78V50.26H87.097C88.9716 50.26 90.593 50.6147 91.961 51.324C93.3543 52.0333 94.431 53.034 95.191 54.326C95.951 55.618 96.331 57.1507 96.331 58.924V69.298C96.331 71.046 95.951 72.5787 95.191 73.896C94.431 75.188 93.3543 76.2013 91.961 76.936C90.593 77.6453 88.9716 78 87.097 78H78.851ZM83.601 73.63H87.097C88.465 73.63 89.5543 73.25 90.365 72.49C91.1756 71.7047 91.581 70.6407 91.581 69.298V58.924C91.581 57.6067 91.1756 56.568 90.365 55.808C89.5543 55.0227 88.465 54.63 87.097 54.63H83.601V73.63ZM119.686 78.38C117.913 78.38 116.367 78.0507 115.05 77.392C113.758 76.708 112.757 75.758 112.048 74.542C111.364 73.3007 111.022 71.844 111.022 70.172V58.088C111.022 56.416 111.364 54.972 112.048 53.756C112.757 52.5147 113.758 51.5647 115.05 50.906C116.367 50.222 117.913 49.88 119.686 49.88C121.485 49.88 123.03 50.222 124.322 50.906C125.614 51.5647 126.602 52.5147 127.286 53.756C127.995 54.972 128.35 56.4033 128.35 58.05V70.172C128.35 71.844 127.995 73.3007 127.286 74.542C126.602 75.758 125.614 76.708 124.322 77.392C123.03 78.0507 121.485 78.38 119.686 78.38ZM119.686 74.2C120.978 74.2 121.953 73.858 122.612 73.174C123.271 72.4647 123.6 71.464 123.6 70.172V58.088C123.6 56.7707 123.271 55.77 122.612 55.086C121.953 54.402 120.978 54.06 119.686 54.06C118.394 54.06 117.419 54.402 116.76 55.086C116.101 55.77 115.772 56.7707 115.772 58.088V70.172C115.772 71.464 116.101 72.4647 116.76 73.174C117.444 73.858 118.419 74.2 119.686 74.2ZM151.971 78.38C150.198 78.38 148.653 78.0507 147.335 77.392C146.043 76.708 145.043 75.758 144.333 74.542C143.649 73.3007 143.307 71.844 143.307 70.172V58.088C143.307 56.416 143.649 54.972 144.333 53.756C145.043 52.5147 146.043 51.5647 147.335 50.906C148.653 50.222 150.198 49.88 151.971 49.88C153.77 49.88 155.315 50.222 156.607 50.906C157.899 51.5647 158.887 52.5147 159.571 53.756C160.281 54.972 160.635 56.4033 160.635 58.05V70.172C160.635 71.844 160.281 73.3007 159.571 74.542C158.887 75.758 157.899 76.708 156.607 77.392C155.315 78.0507 153.77 78.38 151.971 78.38ZM151.971 74.2C153.263 74.2 154.239 73.858 154.897 73.174C155.556 72.4647 155.885 71.464 155.885 70.172V58.088C155.885 56.7707 155.556 55.77 154.897 55.086C154.239 54.402 153.263 54.06 151.971 54.06C150.679 54.06 149.704 54.402 149.045 55.086C148.387 55.77 148.057 56.7707 148.057 58.088V70.172C148.057 71.464 148.387 72.4647 149.045 73.174C149.729 73.858 150.705 74.2 151.971 74.2ZM175.744 78V50.26H184.522C186.372 50.26 187.968 50.602 189.31 51.286C190.678 51.97 191.742 52.9327 192.502 54.174C193.262 55.39 193.642 56.834 193.642 58.506C193.642 60.33 193.174 61.9387 192.236 63.332C191.324 64.7253 190.083 65.7133 188.512 66.296L194.022 78H188.702L183.876 66.98H180.494V78H175.744ZM180.494 62.8H184.522C185.865 62.8 186.916 62.4327 187.676 61.698C188.436 60.9633 188.816 59.95 188.816 58.658C188.816 57.3407 188.436 56.3147 187.676 55.58C186.916 54.82 185.865 54.44 184.522 54.44H180.494V62.8ZM216.618 78.38C214.718 78.38 213.071 78.0633 211.678 77.43C210.284 76.7967 209.208 75.8973 208.448 74.732C207.713 73.5413 207.333 72.148 207.308 70.552H212.058C212.058 71.692 212.463 72.5913 213.274 73.25C214.11 73.8833 215.237 74.2 216.656 74.2C218.024 74.2 219.088 73.8833 219.848 73.25C220.633 72.6167 221.026 71.7427 221.026 70.628C221.026 69.6907 220.747 68.88 220.19 68.196C219.658 67.4867 218.885 67.0053 217.872 66.752L214.68 65.878C212.501 65.3207 210.816 64.32 209.626 62.876C208.46 61.432 207.878 59.684 207.878 57.632C207.878 56.0613 208.232 54.6933 208.942 53.528C209.651 52.3627 210.652 51.4633 211.944 50.83C213.261 50.1967 214.806 49.88 216.58 49.88C219.265 49.88 221.393 50.5767 222.964 51.97C224.534 53.338 225.332 55.1873 225.358 57.518H220.608C220.608 56.4287 220.253 55.58 219.544 54.972C218.834 54.3387 217.834 54.022 216.542 54.022C215.3 54.022 214.338 54.3133 213.654 54.896C212.97 55.4787 212.628 56.302 212.628 57.366C212.628 58.3287 212.881 59.152 213.388 59.836C213.92 60.4947 214.68 60.9633 215.668 61.242L218.974 62.154C221.178 62.7113 222.862 63.712 224.028 65.156C225.193 66.5747 225.776 68.3353 225.776 70.438C225.776 72.0087 225.396 73.402 224.636 74.618C223.876 75.8087 222.812 76.7333 221.444 77.392C220.076 78.0507 218.467 78.38 216.618 78.38Z" fill="#0028A3"/>
</svg>
