<svg width="21" height="16" viewBox="0 0 21 16" fill="none" xmlns="http://www.w3.org/2000/svg">
<path d="M20.412 13.3998V2.5998C20.412 1.6038 19.608 0.799805 18.612 0.799805H1.8C0.804 0.799805 0 1.6038 0 2.5998V13.3998C0 14.3958 0.804 15.1998 1.8 15.1998H18.612C19.608 15.1998 20.412 14.3958 20.412 13.3998ZM18.84 2.4678C19.236 2.8638 19.02 3.2718 18.804 3.4758L13.932 7.9398L18.612 12.8118C18.756 12.9798 18.852 13.2438 18.684 13.4238C18.528 13.6158 18.168 13.6038 18.012 13.4838L12.768 9.0078L10.2 11.3478L7.644 9.0078L2.4 13.4838C2.244 13.6038 1.884 13.6158 1.728 13.4238C1.56 13.2438 1.656 12.9798 1.8 12.8118L6.48 7.9398L1.608 3.4758C1.392 3.2718 1.176 2.8638 1.572 2.4678C1.968 2.0718 2.376 2.2638 2.712 2.5518L10.2 8.5998L17.7 2.5518C18.036 2.2638 18.444 2.0718 18.84 2.4678Z" fill="black" fill-opacity="0.7"/>
</svg>
