<svg width="48" height="48" viewBox="0 0 48 48" fill="none" xmlns="http://www.w3.org/2000/svg">
<rect width="48" height="48" rx="24" fill="white"/>
<path d="M0 24C0 10.7452 10.7452 0 24 0V0C37.2548 0 48 10.7452 48 24V24C48 37.2548 37.2548 48 24 48V48C10.7452 48 0 37.2548 0 24V24Z" fill="#F6F6F8"/>
<path d="M35.4961 18.2052C35.357 17.707 35.0917 17.253 34.726 16.8873C34.3602 16.5215 33.9063 16.2563 33.4081 16.1172C31.538 15.6162 24.012 15.6162 24.012 15.6162C24.012 15.6162 16.5051 15.6062 14.6161 16.1172C14.1178 16.2563 13.6639 16.5215 13.2981 16.8873C12.9324 17.253 12.6671 17.707 12.5281 18.2052C12.1736 20.1197 11.9988 22.0632 12.0061 24.0102C12.0002 25.9499 12.175 27.886 12.5281 29.7932C12.6671 30.2914 12.9324 30.7455 13.2981 31.1113C13.6639 31.477 14.1178 31.7421 14.6161 31.8812C16.4841 32.3833 24.012 32.3833 24.012 32.3833C24.012 32.3833 31.518 32.3833 33.4081 31.8812C33.9063 31.7421 34.3602 31.477 34.726 31.1113C35.0917 30.7455 35.357 30.2914 35.4961 29.7932C35.8418 27.8853 36.0092 25.9493 35.9961 24.0102C36.0106 22.0639 35.8431 20.1204 35.4961 18.2052ZM21.6101 27.6012V20.4082L27.874 24.0102L21.6101 27.6012Z" fill="#1C1C33"/>
</svg>
